Coordinates
version=1
nRows=12
nColumns=34
inDegrees=no

Units are S.I. units (second, meters, Newtons, ...)
If the header above contains a line with 'inDegrees', this indicates whether rotational values are in degrees (yes) or radians (no).

endheader
time	pelvis_tilt	pelvis_list	pelvis_rotation	pelvis_tx	pelvis_ty	pelvis_tz	hip_flexion_r	hip_adduction_r	hip_rotation_r	knee_angle_r	ankle_angle_r	subtalar_angle_r	mtp_angle_r	hip_flexion_l	hip_adduction_l	hip_rotation_l	knee_angle_l	ankle_angle_l	subtalar_angle_l	mtp_angle_l	lumbar_extension	lumbar_bending	lumbar_rotation	arm_flex_r	arm_add_r	arm_rot_r	elbow_flex_r	pro_sup_r	arm_flex_l	arm_add_l	arm_rot_l	elbow_flex_l	pro_sup_l
0.92	0.143275	0.0330009	-0.0949809	0.757416	1.15933	-0.199578	-0.310165	-0.0853381	-0.157443	0.605963	-0.219916	-0.0545899	-0.0186913	0.0392552	0.0472347	-0.215582	0.0365893	-0.0950128	0.160032	-0.0581054	-0.452125	-0.37928	-0.105325	-0.267068	-0.128865	-0.0501939	0.642778	1.96509	0.0129713	-0.262025	-0.268015	0.631354	1.9859
0.93	0.142633	0.0289831	-0.100762	0.767212	1.16109	-0.199128	-0.290958	-0.0854971	-0.140984	0.641296	-0.225727	-0.0792851	-0.0187231	0.0308413	0.0441804	-0.212664	0.0359141	-0.0938739	0.148547	-0.058042	-0.453573	-0.382668	-0.0998804	-0.27122	-0.133017	-0.0404233	0.648264	1.96278	0.0193403	-0.263854	-0.271643	0.636083	1.98651
0.94	0.142289	0.0244606	-0.106052	0.776912	1.16279	-0.1988	-0.272658	-0.0846868	-0.126168	0.674322	-0.227567	-0.102278	-0.0187548	0.0210756	0.0411541	-0.207941	0.033157	-0.0946161	0.135004	-0.0579786	-0.455288	-0.384701	-0.0953811	-0.274638	-0.137847	-0.0308332	0.653701	1.9608	0.0243904	-0.265436	-0.275255	0.642798	1.9864
0.95	0.142209	0.0197303	-0.110696	0.786538	1.16442	-0.198586	-0.255393	-0.0832806	-0.113441	0.704756	-0.225998	-0.123765	-0.0187865	0.0101241	0.0383801	-0.201544	0.0287217	-0.0967452	0.119907	-0.0579153	-0.457239	-0.385721	-0.0921054	-0.277326	-0.143026	-0.0220737	0.658767	1.95939	0.0280896	-0.266961	-0.278571	0.65117	1.98558
0.96	0.142343	0.015071	-0.114607	0.796107	1.16597	-0.198473	-0.239172	-0.0816582	-0.103065	0.732462	-0.221757	-0.144105	-0.0188182	-0.00174298	0.0360215	-0.193842	0.0231786	-0.0996123	0.104033	-0.0578521	-0.459372	-0.386075	-0.0901765	-0.279333	-0.14821	-0.0147598	0.663193	1.95868	0.0305463	-0.268613	-0.281285	0.66078	1.98412
0.97	0.142637	0.0107224	-0.117768	0.805627	1.16743	-0.198448	-0.223909	-0.0801719	-0.0951232	0.757435	-0.215648	-0.163737	-0.0188499	-0.0142054	0.0341851	-0.185363	0.017173	-0.10253	0.0882854	-0.057789	-0.461622	-0.38609	-0.0895641	-0.280743	-0.153074	-0.00940015	0.666787	1.95866	0.0319851	-0.270546	-0.283104	0.671171	1.98206
0.98	0.143043	0.00686879	-0.120233	0.8151	1.16877	-0.198495	-0.209464	-0.0791141	-0.0895272	0.779761	-0.208432	-0.183104	-0.0188815	-0.0269404	0.0329278	-0.176686	0.0113309	-0.104877	0.0735305	-0.0577259	-0.463932	-0.386046	-0.0901054	-0.281669	-0.157346	-0.00634325	0.669449	1.95917	0.0327115	-0.272868	-0.283799	0.681902	1.97947
0.99	0.143531	0.00363052	-0.122103	0.824517	1.17001	-0.1986	-0.195669	-0.0786909	-0.086043	0.799583	-0.200739	-0.202589	-0.0189131	-0.0396586	0.0322631	-0.168341	0.00617357	-0.106174	0.0604577	-0.0576629	-0.466257	-0.386156	-0.0915414	-0.282231	-0.160822	-0.00574894	0.671168	1.95999	0.0330712	-0.275633	-0.28323	0.692594	1.97641
1	0.144086	0.00106064	-0.123513	0.833866	1.17113	-0.198752	-0.18236	-0.0790066	-0.0843248	0.817067	-0.193022	-0.222473	-0.0189447	-0.0521308	0.0321677	-0.160739	0.00205022	-0.10613	0.0494861	-0.0575999	-0.468578	-0.38656	-0.0935603	-0.282539	-0.163381	-0.00758637	0.672008	1.96086	0.0334088	-0.278837	-0.281362	0.702963	1.97296
1.01	0.144702	-0.000851751	-0.124603	0.84313	1.17215	-0.19894	-0.169393	-0.0800615	-0.0839546	0.832367	-0.185561	-0.242899	-0.0189762	-0.0641999	0.0325888	-0.154126	-0.000897938	-0.104655	0.0407366	-0.0575371	-0.470902	-0.387313	-0.0958418	-0.28268	-0.16498	-0.0116547	0.672088	1.96152	0.0340341	-0.282424	-0.278263	0.712828	1.9692
1.02	0.145379	-0.00217019	-0.125506	0.852289	1.17306	-0.199154	-0.156651	-0.0817632	-0.0844862	0.845609	-0.178482	-0.263844	-0.0190077	-0.0757776	0.0334508	-0.148599	-0.00271965	-0.101835	0.0340814	-0.0574742	-0.473255	-0.388399	-0.0980959	-0.2827	-0.165651	-0.0176192	0.671556	1.96178	0.0351976	-0.2863	-0.274085	0.722109	1.96522
1.03	0.146118	-0.00299547	-0.126331	0.861325	1.17387	-0.199387	-0.144049	-0.0839482	-0.0854828	0.856873	-0.171804	-0.285117	-0.0190392	-0.0868306	0.0346631	-0.14414	-0.00359693	-0.0978847	0.0292283	-0.0574115	-0.475676	-0.389742	-0.100091	-0.282611	-0.165485	-0.0250563	0.670574	1.96152	0.0370763	-0.290344	-0.269041	0.730796	1.96113
